<svg xmlns="http://www.w3.org/2000/svg" xmlns:xlink="http://www.w3.org/1999/xlink" width="200" zoomAndPan="magnify" viewBox="0 0 150 37.5" height="50" preserveAspectRatio="xMidYMid meet" version="1.0"><defs><g/><clipPath id="id1"><path d="M 23.605469 6.21875 L 36.929688 6.21875 L 36.929688 19.542969 L 23.605469 19.542969 Z M 23.605469 6.21875 " clip-rule="nonzero"/></clipPath></defs><g fill="#112642" fill-opacity="0.4"><g transform="translate(5.758014, 18.417348)"><g><path d="M 6.015625 -5.578125 L 9.671875 -5.578125 L 9.671875 -0.40625 C 9.097656 -0.21875 8.519531 -0.0820312 7.9375 0 C 7.363281 0.09375 6.707031 0.140625 5.96875 0.140625 C 4.875 0.140625 3.953125 -0.078125 3.203125 -0.515625 C 2.453125 -0.953125 1.878906 -1.578125 1.484375 -2.390625 C 1.097656 -3.203125 0.90625 -4.164062 0.90625 -5.28125 C 0.90625 -6.375 1.117188 -7.328125 1.546875 -8.140625 C 1.972656 -8.953125 2.59375 -9.582031 3.40625 -10.03125 C 4.226562 -10.488281 5.21875 -10.71875 6.375 -10.71875 C 6.96875 -10.71875 7.523438 -10.660156 8.046875 -10.546875 C 8.578125 -10.441406 9.070312 -10.289062 9.53125 -10.09375 L 9.03125 -8.9375 C 8.65625 -9.09375 8.234375 -9.234375 7.765625 -9.359375 C 7.296875 -9.484375 6.804688 -9.546875 6.296875 -9.546875 C 5.035156 -9.546875 4.050781 -9.160156 3.34375 -8.390625 C 2.644531 -7.628906 2.296875 -6.59375 2.296875 -5.28125 C 2.296875 -4.445312 2.429688 -3.707031 2.703125 -3.0625 C 2.972656 -2.414062 3.398438 -1.910156 3.984375 -1.546875 C 4.566406 -1.179688 5.332031 -1 6.28125 -1 C 6.738281 -1 7.128906 -1.023438 7.453125 -1.078125 C 7.785156 -1.128906 8.082031 -1.1875 8.34375 -1.25 L 8.34375 -4.390625 L 6.015625 -4.390625 Z M 6.015625 -5.578125 "/></g></g></g><g fill="#112642" fill-opacity="0.4"><g transform="translate(16.534316, 18.417348)"><g><path d="M 1.4375 0 L 1.4375 -10.5625 L 2.765625 -10.5625 L 2.765625 -1.1875 L 7.390625 -1.1875 L 7.390625 0 Z M 1.4375 0 "/></g></g></g><g fill="#112642" fill-opacity="1"><g transform="translate(5.103824, 17.763158)"><g><path d="M 6.015625 -5.578125 L 9.671875 -5.578125 L 9.671875 -0.40625 C 9.097656 -0.21875 8.519531 -0.0820312 7.9375 0 C 7.363281 0.09375 6.707031 0.140625 5.96875 0.140625 C 4.875 0.140625 3.953125 -0.078125 3.203125 -0.515625 C 2.453125 -0.953125 1.878906 -1.578125 1.484375 -2.390625 C 1.097656 -3.203125 0.90625 -4.164062 0.90625 -5.28125 C 0.90625 -6.375 1.117188 -7.328125 1.546875 -8.140625 C 1.972656 -8.953125 2.59375 -9.582031 3.40625 -10.03125 C 4.226562 -10.488281 5.21875 -10.71875 6.375 -10.71875 C 6.96875 -10.71875 7.523438 -10.660156 8.046875 -10.546875 C 8.578125 -10.441406 9.070312 -10.289062 9.53125 -10.09375 L 9.03125 -8.9375 C 8.65625 -9.09375 8.234375 -9.234375 7.765625 -9.359375 C 7.296875 -9.484375 6.804688 -9.546875 6.296875 -9.546875 C 5.035156 -9.546875 4.050781 -9.160156 3.34375 -8.390625 C 2.644531 -7.628906 2.296875 -6.59375 2.296875 -5.28125 C 2.296875 -4.445312 2.429688 -3.707031 2.703125 -3.0625 C 2.972656 -2.414062 3.398438 -1.910156 3.984375 -1.546875 C 4.566406 -1.179688 5.332031 -1 6.28125 -1 C 6.738281 -1 7.128906 -1.023438 7.453125 -1.078125 C 7.785156 -1.128906 8.082031 -1.1875 8.34375 -1.25 L 8.34375 -4.390625 L 6.015625 -4.390625 Z M 6.015625 -5.578125 "/></g></g></g><g fill="#112642" fill-opacity="1"><g transform="translate(15.880126, 17.763158)"><g><path d="M 1.4375 0 L 1.4375 -10.5625 L 2.765625 -10.5625 L 2.765625 -1.1875 L 7.390625 -1.1875 L 7.390625 0 Z M 1.4375 0 "/></g></g></g><g fill="#112642" fill-opacity="0.4"><g transform="translate(24.284432, 18.417348)"><g/></g></g><g fill="#112642" fill-opacity="0.4"><g transform="translate(27.467, 18.417348)"><g/></g></g><g fill="#112642" fill-opacity="0.4"><g transform="translate(30.649568, 18.417348)"><g/></g></g><g fill="#112642" fill-opacity="0.4"><g transform="translate(33.832136, 18.417348)"><g/></g></g><g fill="#112642" fill-opacity="1"><g transform="translate(23.630242, 17.763158)"><g/></g></g><g fill="#112642" fill-opacity="1"><g transform="translate(26.81281, 17.763158)"><g/></g></g><g fill="#112642" fill-opacity="1"><g transform="translate(29.995378, 17.763158)"><g/></g></g><g fill="#112642" fill-opacity="1"><g transform="translate(33.177946, 17.763158)"><g/></g></g><g fill="#112642" fill-opacity="0.4"><g transform="translate(37.005443, 18.417348)"><g><path d="M 1.4375 -10.5625 L 4.453125 -10.5625 C 5.765625 -10.5625 6.757812 -10.363281 7.4375 -9.96875 C 8.125 -9.570312 8.46875 -8.898438 8.46875 -7.953125 C 8.46875 -7.328125 8.289062 -6.804688 7.9375 -6.390625 C 7.59375 -5.984375 7.097656 -5.722656 6.453125 -5.609375 L 6.453125 -5.53125 C 6.898438 -5.457031 7.300781 -5.328125 7.65625 -5.140625 C 8.019531 -4.953125 8.300781 -4.679688 8.5 -4.328125 C 8.707031 -3.984375 8.8125 -3.539062 8.8125 -3 C 8.8125 -2.039062 8.484375 -1.300781 7.828125 -0.78125 C 7.171875 -0.257812 6.28125 0 5.15625 0 L 1.4375 0 Z M 2.765625 -6.0625 L 4.71875 -6.0625 C 5.613281 -6.0625 6.234375 -6.207031 6.578125 -6.5 C 6.921875 -6.789062 7.09375 -7.222656 7.09375 -7.796875 C 7.09375 -8.378906 6.882812 -8.796875 6.46875 -9.046875 C 6.0625 -9.296875 5.410156 -9.421875 4.515625 -9.421875 L 2.765625 -9.421875 Z M 2.765625 -4.953125 L 2.765625 -1.125 L 4.890625 -1.125 C 5.828125 -1.125 6.476562 -1.304688 6.84375 -1.671875 C 7.21875 -2.035156 7.40625 -2.515625 7.40625 -3.109375 C 7.40625 -3.660156 7.210938 -4.101562 6.828125 -4.4375 C 6.453125 -4.78125 5.773438 -4.953125 4.796875 -4.953125 Z M 2.765625 -4.953125 "/></g></g></g><g fill="#112642" fill-opacity="0.4"><g transform="translate(46.627142, 18.417348)"><g><path d="M 8.0625 0 L 6.796875 -3.265625 L 2.609375 -3.265625 L 1.34375 0 L 0 0 L 4.125 -10.609375 L 5.328125 -10.609375 L 9.4375 0 Z M 6.390625 -4.453125 L 5.203125 -7.65625 C 5.179688 -7.726562 5.132812 -7.867188 5.0625 -8.078125 C 4.988281 -8.285156 4.921875 -8.5 4.859375 -8.71875 C 4.796875 -8.945312 4.742188 -9.117188 4.703125 -9.234375 C 4.628906 -8.929688 4.546875 -8.632812 4.453125 -8.34375 C 4.367188 -8.050781 4.300781 -7.820312 4.25 -7.65625 L 3.046875 -4.453125 Z M 6.390625 -4.453125 "/></g></g></g><g fill="#112642" fill-opacity="0.4"><g transform="translate(56.08601, 18.417348)"><g><path d="M 1.4375 0 L 1.4375 -10.5625 L 2.765625 -10.5625 L 2.765625 -1.1875 L 7.390625 -1.1875 L 7.390625 0 Z M 1.4375 0 "/></g></g></g><g fill="#112642" fill-opacity="0.4"><g transform="translate(63.842586, 18.417348)"><g/></g></g><g fill="#112642" fill-opacity="0.4"><g transform="translate(67.025154, 18.417348)"><g><path d="M 1.4375 0 L 1.4375 -10.5625 L 2.765625 -10.5625 L 2.765625 -1.1875 L 7.390625 -1.1875 L 7.390625 0 Z M 1.4375 0 "/></g></g></g><g fill="#112642" fill-opacity="0.4"><g transform="translate(74.781729, 18.417348)"><g><path d="M 8.0625 0 L 6.796875 -3.265625 L 2.609375 -3.265625 L 1.34375 0 L 0 0 L 4.125 -10.609375 L 5.328125 -10.609375 L 9.4375 0 Z M 6.390625 -4.453125 L 5.203125 -7.65625 C 5.179688 -7.726562 5.132812 -7.867188 5.0625 -8.078125 C 4.988281 -8.285156 4.921875 -8.5 4.859375 -8.71875 C 4.796875 -8.945312 4.742188 -9.117188 4.703125 -9.234375 C 4.628906 -8.929688 4.546875 -8.632812 4.453125 -8.34375 C 4.367188 -8.050781 4.300781 -7.820312 4.25 -7.65625 L 3.046875 -4.453125 Z M 6.390625 -4.453125 "/></g></g></g><g fill="#112642" fill-opacity="0.4"><g transform="translate(84.240598, 18.417348)"><g><path d="M 9.8125 0 L 8.25 0 L 2.609375 -8.78125 L 2.546875 -8.78125 C 2.566406 -8.425781 2.585938 -7.992188 2.609375 -7.484375 C 2.640625 -6.972656 2.65625 -6.445312 2.65625 -5.90625 L 2.65625 0 L 1.4375 0 L 1.4375 -10.5625 L 2.96875 -10.5625 L 8.609375 -1.8125 L 8.671875 -1.8125 C 8.660156 -1.976562 8.644531 -2.21875 8.625 -2.53125 C 8.613281 -2.84375 8.597656 -3.179688 8.578125 -3.546875 C 8.566406 -3.921875 8.5625 -4.273438 8.5625 -4.609375 L 8.5625 -10.5625 L 9.8125 -10.5625 Z M 9.8125 0 "/></g></g></g><g fill="#112642" fill-opacity="0.4"><g transform="translate(95.490584, 18.417348)"><g><path d="M 6.015625 -5.578125 L 9.671875 -5.578125 L 9.671875 -0.40625 C 9.097656 -0.21875 8.519531 -0.0820312 7.9375 0 C 7.363281 0.09375 6.707031 0.140625 5.96875 0.140625 C 4.875 0.140625 3.953125 -0.078125 3.203125 -0.515625 C 2.453125 -0.953125 1.878906 -1.578125 1.484375 -2.390625 C 1.097656 -3.203125 0.90625 -4.164062 0.90625 -5.28125 C 0.90625 -6.375 1.117188 -7.328125 1.546875 -8.140625 C 1.972656 -8.953125 2.59375 -9.582031 3.40625 -10.03125 C 4.226562 -10.488281 5.21875 -10.71875 6.375 -10.71875 C 6.96875 -10.71875 7.523438 -10.660156 8.046875 -10.546875 C 8.578125 -10.441406 9.070312 -10.289062 9.53125 -10.09375 L 9.03125 -8.9375 C 8.65625 -9.09375 8.234375 -9.234375 7.765625 -9.359375 C 7.296875 -9.484375 6.804688 -9.546875 6.296875 -9.546875 C 5.035156 -9.546875 4.050781 -9.160156 3.34375 -8.390625 C 2.644531 -7.628906 2.296875 -6.59375 2.296875 -5.28125 C 2.296875 -4.445312 2.429688 -3.707031 2.703125 -3.0625 C 2.972656 -2.414062 3.398438 -1.910156 3.984375 -1.546875 C 4.566406 -1.179688 5.332031 -1 6.28125 -1 C 6.738281 -1 7.128906 -1.023438 7.453125 -1.078125 C 7.785156 -1.128906 8.082031 -1.1875 8.34375 -1.25 L 8.34375 -4.390625 L 6.015625 -4.390625 Z M 6.015625 -5.578125 "/></g></g></g><g fill="#112642" fill-opacity="0.4"><g transform="translate(106.266887, 18.417348)"><g><path d="M 9.46875 -10.5625 L 9.46875 -3.734375 C 9.46875 -3.003906 9.316406 -2.34375 9.015625 -1.75 C 8.722656 -1.164062 8.269531 -0.703125 7.65625 -0.359375 C 7.050781 -0.0234375 6.285156 0.140625 5.359375 0.140625 C 4.035156 0.140625 3.03125 -0.210938 2.34375 -0.921875 C 1.664062 -1.640625 1.328125 -2.585938 1.328125 -3.765625 L 1.328125 -10.5625 L 2.65625 -10.5625 L 2.65625 -3.71875 C 2.65625 -2.851562 2.882812 -2.179688 3.34375 -1.703125 C 3.8125 -1.234375 4.507812 -1 5.4375 -1 C 6.382812 -1 7.070312 -1.253906 7.5 -1.765625 C 7.9375 -2.273438 8.15625 -2.929688 8.15625 -3.734375 L 8.15625 -10.5625 Z M 9.46875 -10.5625 "/></g></g></g><g fill="#112642" fill-opacity="0.4"><g transform="translate(117.087595, 18.417348)"><g><path d="M 8.0625 0 L 6.796875 -3.265625 L 2.609375 -3.265625 L 1.34375 0 L 0 0 L 4.125 -10.609375 L 5.328125 -10.609375 L 9.4375 0 Z M 6.390625 -4.453125 L 5.203125 -7.65625 C 5.179688 -7.726562 5.132812 -7.867188 5.0625 -8.078125 C 4.988281 -8.285156 4.921875 -8.5 4.859375 -8.71875 C 4.796875 -8.945312 4.742188 -9.117188 4.703125 -9.234375 C 4.628906 -8.929688 4.546875 -8.632812 4.453125 -8.34375 C 4.367188 -8.050781 4.300781 -7.820312 4.25 -7.65625 L 3.046875 -4.453125 Z M 6.390625 -4.453125 "/></g></g></g><g fill="#112642" fill-opacity="0.4"><g transform="translate(126.546464, 18.417348)"><g><path d="M 6.015625 -5.578125 L 9.671875 -5.578125 L 9.671875 -0.40625 C 9.097656 -0.21875 8.519531 -0.0820312 7.9375 0 C 7.363281 0.09375 6.707031 0.140625 5.96875 0.140625 C 4.875 0.140625 3.953125 -0.078125 3.203125 -0.515625 C 2.453125 -0.953125 1.878906 -1.578125 1.484375 -2.390625 C 1.097656 -3.203125 0.90625 -4.164062 0.90625 -5.28125 C 0.90625 -6.375 1.117188 -7.328125 1.546875 -8.140625 C 1.972656 -8.953125 2.59375 -9.582031 3.40625 -10.03125 C 4.226562 -10.488281 5.21875 -10.71875 6.375 -10.71875 C 6.96875 -10.71875 7.523438 -10.660156 8.046875 -10.546875 C 8.578125 -10.441406 9.070312 -10.289062 9.53125 -10.09375 L 9.03125 -8.9375 C 8.65625 -9.09375 8.234375 -9.234375 7.765625 -9.359375 C 7.296875 -9.484375 6.804688 -9.546875 6.296875 -9.546875 C 5.035156 -9.546875 4.050781 -9.160156 3.34375 -8.390625 C 2.644531 -7.628906 2.296875 -6.59375 2.296875 -5.28125 C 2.296875 -4.445312 2.429688 -3.707031 2.703125 -3.0625 C 2.972656 -2.414062 3.398438 -1.910156 3.984375 -1.546875 C 4.566406 -1.179688 5.332031 -1 6.28125 -1 C 6.738281 -1 7.128906 -1.023438 7.453125 -1.078125 C 7.785156 -1.128906 8.082031 -1.1875 8.34375 -1.25 L 8.34375 -4.390625 L 6.015625 -4.390625 Z M 6.015625 -5.578125 "/></g></g></g><g fill="#112642" fill-opacity="0.4"><g transform="translate(137.322766, 18.417348)"><g><path d="M 7.34375 0 L 1.4375 0 L 1.4375 -10.5625 L 7.34375 -10.5625 L 7.34375 -9.390625 L 2.765625 -9.390625 L 2.765625 -6.09375 L 7.078125 -6.09375 L 7.078125 -4.9375 L 2.765625 -4.9375 L 2.765625 -1.171875 L 7.34375 -1.171875 Z M 7.34375 0 "/></g></g></g><g fill="#112642" fill-opacity="1"><g transform="translate(36.351253, 17.763158)"><g><path d="M 1.4375 -10.5625 L 4.453125 -10.5625 C 5.765625 -10.5625 6.757812 -10.363281 7.4375 -9.96875 C 8.125 -9.570312 8.46875 -8.898438 8.46875 -7.953125 C 8.46875 -7.328125 8.289062 -6.804688 7.9375 -6.390625 C 7.59375 -5.984375 7.097656 -5.722656 6.453125 -5.609375 L 6.453125 -5.53125 C 6.898438 -5.457031 7.300781 -5.328125 7.65625 -5.140625 C 8.019531 -4.953125 8.300781 -4.679688 8.5 -4.328125 C 8.707031 -3.984375 8.8125 -3.539062 8.8125 -3 C 8.8125 -2.039062 8.484375 -1.300781 7.828125 -0.78125 C 7.171875 -0.257812 6.28125 0 5.15625 0 L 1.4375 0 Z M 2.765625 -6.0625 L 4.71875 -6.0625 C 5.613281 -6.0625 6.234375 -6.207031 6.578125 -6.5 C 6.921875 -6.789062 7.09375 -7.222656 7.09375 -7.796875 C 7.09375 -8.378906 6.882812 -8.796875 6.46875 -9.046875 C 6.0625 -9.296875 5.410156 -9.421875 4.515625 -9.421875 L 2.765625 -9.421875 Z M 2.765625 -4.953125 L 2.765625 -1.125 L 4.890625 -1.125 C 5.828125 -1.125 6.476562 -1.304688 6.84375 -1.671875 C 7.21875 -2.035156 7.40625 -2.515625 7.40625 -3.109375 C 7.40625 -3.660156 7.210938 -4.101562 6.828125 -4.4375 C 6.453125 -4.78125 5.773438 -4.953125 4.796875 -4.953125 Z M 2.765625 -4.953125 "/></g></g></g><g fill="#112642" fill-opacity="1"><g transform="translate(45.972951, 17.763158)"><g><path d="M 8.0625 0 L 6.796875 -3.265625 L 2.609375 -3.265625 L 1.34375 0 L 0 0 L 4.125 -10.609375 L 5.328125 -10.609375 L 9.4375 0 Z M 6.390625 -4.453125 L 5.203125 -7.65625 C 5.179688 -7.726562 5.132812 -7.867188 5.0625 -8.078125 C 4.988281 -8.285156 4.921875 -8.5 4.859375 -8.71875 C 4.796875 -8.945312 4.742188 -9.117188 4.703125 -9.234375 C 4.628906 -8.929688 4.546875 -8.632812 4.453125 -8.34375 C 4.367188 -8.050781 4.300781 -7.820312 4.25 -7.65625 L 3.046875 -4.453125 Z M 6.390625 -4.453125 "/></g></g></g><g fill="#112642" fill-opacity="1"><g transform="translate(55.43182, 17.763158)"><g><path d="M 1.4375 0 L 1.4375 -10.5625 L 2.765625 -10.5625 L 2.765625 -1.1875 L 7.390625 -1.1875 L 7.390625 0 Z M 1.4375 0 "/></g></g></g><g fill="#112642" fill-opacity="1"><g transform="translate(63.188396, 17.763158)"><g/></g></g><g fill="#112642" fill-opacity="1"><g transform="translate(66.370964, 17.763158)"><g><path d="M 1.4375 0 L 1.4375 -10.5625 L 2.765625 -10.5625 L 2.765625 -1.1875 L 7.390625 -1.1875 L 7.390625 0 Z M 1.4375 0 "/></g></g></g><g fill="#112642" fill-opacity="1"><g transform="translate(74.127539, 17.763158)"><g><path d="M 8.0625 0 L 6.796875 -3.265625 L 2.609375 -3.265625 L 1.34375 0 L 0 0 L 4.125 -10.609375 L 5.328125 -10.609375 L 9.4375 0 Z M 6.390625 -4.453125 L 5.203125 -7.65625 C 5.179688 -7.726562 5.132812 -7.867188 5.0625 -8.078125 C 4.988281 -8.285156 4.921875 -8.5 4.859375 -8.71875 C 4.796875 -8.945312 4.742188 -9.117188 4.703125 -9.234375 C 4.628906 -8.929688 4.546875 -8.632812 4.453125 -8.34375 C 4.367188 -8.050781 4.300781 -7.820312 4.25 -7.65625 L 3.046875 -4.453125 Z M 6.390625 -4.453125 "/></g></g></g><g fill="#112642" fill-opacity="1"><g transform="translate(83.586408, 17.763158)"><g><path d="M 9.8125 0 L 8.25 0 L 2.609375 -8.78125 L 2.546875 -8.78125 C 2.566406 -8.425781 2.585938 -7.992188 2.609375 -7.484375 C 2.640625 -6.972656 2.65625 -6.445312 2.65625 -5.90625 L 2.65625 0 L 1.4375 0 L 1.4375 -10.5625 L 2.96875 -10.5625 L 8.609375 -1.8125 L 8.671875 -1.8125 C 8.660156 -1.976562 8.644531 -2.21875 8.625 -2.53125 C 8.613281 -2.84375 8.597656 -3.179688 8.578125 -3.546875 C 8.566406 -3.921875 8.5625 -4.273438 8.5625 -4.609375 L 8.5625 -10.5625 L 9.8125 -10.5625 Z M 9.8125 0 "/></g></g></g><g fill="#112642" fill-opacity="1"><g transform="translate(94.836394, 17.763158)"><g><path d="M 6.015625 -5.578125 L 9.671875 -5.578125 L 9.671875 -0.40625 C 9.097656 -0.21875 8.519531 -0.0820312 7.9375 0 C 7.363281 0.09375 6.707031 0.140625 5.96875 0.140625 C 4.875 0.140625 3.953125 -0.078125 3.203125 -0.515625 C 2.453125 -0.953125 1.878906 -1.578125 1.484375 -2.390625 C 1.097656 -3.203125 0.90625 -4.164062 0.90625 -5.28125 C 0.90625 -6.375 1.117188 -7.328125 1.546875 -8.140625 C 1.972656 -8.953125 2.59375 -9.582031 3.40625 -10.03125 C 4.226562 -10.488281 5.21875 -10.71875 6.375 -10.71875 C 6.96875 -10.71875 7.523438 -10.660156 8.046875 -10.546875 C 8.578125 -10.441406 9.070312 -10.289062 9.53125 -10.09375 L 9.03125 -8.9375 C 8.65625 -9.09375 8.234375 -9.234375 7.765625 -9.359375 C 7.296875 -9.484375 6.804688 -9.546875 6.296875 -9.546875 C 5.035156 -9.546875 4.050781 -9.160156 3.34375 -8.390625 C 2.644531 -7.628906 2.296875 -6.59375 2.296875 -5.28125 C 2.296875 -4.445312 2.429688 -3.707031 2.703125 -3.0625 C 2.972656 -2.414062 3.398438 -1.910156 3.984375 -1.546875 C 4.566406 -1.179688 5.332031 -1 6.28125 -1 C 6.738281 -1 7.128906 -1.023438 7.453125 -1.078125 C 7.785156 -1.128906 8.082031 -1.1875 8.34375 -1.25 L 8.34375 -4.390625 L 6.015625 -4.390625 Z M 6.015625 -5.578125 "/></g></g></g><g fill="#112642" fill-opacity="1"><g transform="translate(105.612696, 17.763158)"><g><path d="M 9.46875 -10.5625 L 9.46875 -3.734375 C 9.46875 -3.003906 9.316406 -2.34375 9.015625 -1.75 C 8.722656 -1.164062 8.269531 -0.703125 7.65625 -0.359375 C 7.050781 -0.0234375 6.285156 0.140625 5.359375 0.140625 C 4.035156 0.140625 3.03125 -0.210938 2.34375 -0.921875 C 1.664062 -1.640625 1.328125 -2.585938 1.328125 -3.765625 L 1.328125 -10.5625 L 2.65625 -10.5625 L 2.65625 -3.71875 C 2.65625 -2.851562 2.882812 -2.179688 3.34375 -1.703125 C 3.8125 -1.234375 4.507812 -1 5.4375 -1 C 6.382812 -1 7.070312 -1.253906 7.5 -1.765625 C 7.9375 -2.273438 8.15625 -2.929688 8.15625 -3.734375 L 8.15625 -10.5625 Z M 9.46875 -10.5625 "/></g></g></g><g fill="#112642" fill-opacity="1"><g transform="translate(116.433405, 17.763158)"><g><path d="M 8.0625 0 L 6.796875 -3.265625 L 2.609375 -3.265625 L 1.34375 0 L 0 0 L 4.125 -10.609375 L 5.328125 -10.609375 L 9.4375 0 Z M 6.390625 -4.453125 L 5.203125 -7.65625 C 5.179688 -7.726562 5.132812 -7.867188 5.0625 -8.078125 C 4.988281 -8.285156 4.921875 -8.5 4.859375 -8.71875 C 4.796875 -8.945312 4.742188 -9.117188 4.703125 -9.234375 C 4.628906 -8.929688 4.546875 -8.632812 4.453125 -8.34375 C 4.367188 -8.050781 4.300781 -7.820312 4.25 -7.65625 L 3.046875 -4.453125 Z M 6.390625 -4.453125 "/></g></g></g><g fill="#112642" fill-opacity="1"><g transform="translate(125.892274, 17.763158)"><g><path d="M 6.015625 -5.578125 L 9.671875 -5.578125 L 9.671875 -0.40625 C 9.097656 -0.21875 8.519531 -0.0820312 7.9375 0 C 7.363281 0.09375 6.707031 0.140625 5.96875 0.140625 C 4.875 0.140625 3.953125 -0.078125 3.203125 -0.515625 C 2.453125 -0.953125 1.878906 -1.578125 1.484375 -2.390625 C 1.097656 -3.203125 0.90625 -4.164062 0.90625 -5.28125 C 0.90625 -6.375 1.117188 -7.328125 1.546875 -8.140625 C 1.972656 -8.953125 2.59375 -9.582031 3.40625 -10.03125 C 4.226562 -10.488281 5.21875 -10.71875 6.375 -10.71875 C 6.96875 -10.71875 7.523438 -10.660156 8.046875 -10.546875 C 8.578125 -10.441406 9.070312 -10.289062 9.53125 -10.09375 L 9.03125 -8.9375 C 8.65625 -9.09375 8.234375 -9.234375 7.765625 -9.359375 C 7.296875 -9.484375 6.804688 -9.546875 6.296875 -9.546875 C 5.035156 -9.546875 4.050781 -9.160156 3.34375 -8.390625 C 2.644531 -7.628906 2.296875 -6.59375 2.296875 -5.28125 C 2.296875 -4.445312 2.429688 -3.707031 2.703125 -3.0625 C 2.972656 -2.414062 3.398438 -1.910156 3.984375 -1.546875 C 4.566406 -1.179688 5.332031 -1 6.28125 -1 C 6.738281 -1 7.128906 -1.023438 7.453125 -1.078125 C 7.785156 -1.128906 8.082031 -1.1875 8.34375 -1.25 L 8.34375 -4.390625 L 6.015625 -4.390625 Z M 6.015625 -5.578125 "/></g></g></g><g fill="#112642" fill-opacity="1"><g transform="translate(136.668576, 17.763158)"><g><path d="M 7.34375 0 L 1.4375 0 L 1.4375 -10.5625 L 7.34375 -10.5625 L 7.34375 -9.390625 L 2.765625 -9.390625 L 2.765625 -6.09375 L 7.078125 -6.09375 L 7.078125 -4.9375 L 2.765625 -4.9375 L 2.765625 -1.171875 L 7.34375 -1.171875 Z M 7.34375 0 "/></g></g></g><g fill="#112642" fill-opacity="0.4"><g transform="translate(48.408094, 31.739716)"><g><path d="M 5.96875 -9.546875 C 4.832031 -9.546875 3.9375 -9.164062 3.28125 -8.40625 C 2.632812 -7.644531 2.3125 -6.601562 2.3125 -5.28125 C 2.3125 -3.96875 2.613281 -2.925781 3.21875 -2.15625 C 3.820312 -1.394531 4.734375 -1.015625 5.953125 -1.015625 C 6.398438 -1.015625 6.832031 -1.050781 7.25 -1.125 C 7.664062 -1.207031 8.078125 -1.3125 8.484375 -1.4375 L 8.484375 -0.28125 C 8.085938 -0.132812 7.675781 -0.03125 7.25 0.03125 C 6.832031 0.101562 6.332031 0.140625 5.75 0.140625 C 4.675781 0.140625 3.78125 -0.078125 3.0625 -0.515625 C 2.34375 -0.960938 1.800781 -1.59375 1.4375 -2.40625 C 1.082031 -3.226562 0.90625 -4.191406 0.90625 -5.296875 C 0.90625 -6.359375 1.097656 -7.296875 1.484375 -8.109375 C 1.878906 -8.929688 2.453125 -9.570312 3.203125 -10.03125 C 3.960938 -10.488281 4.890625 -10.71875 5.984375 -10.71875 C 7.097656 -10.71875 8.066406 -10.507812 8.890625 -10.09375 L 8.359375 -8.96875 C 8.035156 -9.113281 7.671875 -9.242188 7.265625 -9.359375 C 6.867188 -9.484375 6.4375 -9.546875 5.96875 -9.546875 Z M 5.96875 -9.546875 "/></g></g></g><g fill="#112642" fill-opacity="0.4"><g transform="translate(57.763345, 31.739716)"><g><path d="M 7.34375 0 L 1.4375 0 L 1.4375 -10.5625 L 7.34375 -10.5625 L 7.34375 -9.390625 L 2.765625 -9.390625 L 2.765625 -6.09375 L 7.078125 -6.09375 L 7.078125 -4.9375 L 2.765625 -4.9375 L 2.765625 -1.171875 L 7.34375 -1.171875 Z M 7.34375 0 "/></g></g></g><g fill="#112642" fill-opacity="0.4"><g transform="translate(65.993605, 31.739716)"><g><path d="M 9.8125 0 L 8.25 0 L 2.609375 -8.78125 L 2.546875 -8.78125 C 2.566406 -8.425781 2.585938 -7.992188 2.609375 -7.484375 C 2.640625 -6.972656 2.65625 -6.445312 2.65625 -5.90625 L 2.65625 0 L 1.4375 0 L 1.4375 -10.5625 L 2.96875 -10.5625 L 8.609375 -1.8125 L 8.671875 -1.8125 C 8.660156 -1.976562 8.644531 -2.21875 8.625 -2.53125 C 8.613281 -2.84375 8.597656 -3.179688 8.578125 -3.546875 C 8.566406 -3.921875 8.5625 -4.273438 8.5625 -4.609375 L 8.5625 -10.5625 L 9.8125 -10.5625 Z M 9.8125 0 "/></g></g></g><g fill="#112642" fill-opacity="0.4"><g transform="translate(77.243591, 31.739716)"><g><path d="M 4.78125 0 L 3.453125 0 L 3.453125 -9.390625 L 0.140625 -9.390625 L 0.140625 -10.5625 L 8.0625 -10.5625 L 8.0625 -9.390625 L 4.78125 -9.390625 Z M 4.78125 0 "/></g></g></g><g fill="#112642" fill-opacity="0.4"><g transform="translate(85.47385, 31.739716)"><g><path d="M 7.34375 0 L 1.4375 0 L 1.4375 -10.5625 L 7.34375 -10.5625 L 7.34375 -9.390625 L 2.765625 -9.390625 L 2.765625 -6.09375 L 7.078125 -6.09375 L 7.078125 -4.9375 L 2.765625 -4.9375 L 2.765625 -1.171875 L 7.34375 -1.171875 Z M 7.34375 0 "/></g></g></g><g fill="#112642" fill-opacity="0.4"><g transform="translate(93.704109, 31.739716)"><g><path d="M 4.34375 -10.5625 C 5.65625 -10.5625 6.625 -10.3125 7.25 -9.8125 C 7.882812 -9.320312 8.203125 -8.570312 8.203125 -7.5625 C 8.203125 -7 8.097656 -6.53125 7.890625 -6.15625 C 7.679688 -5.78125 7.414062 -5.476562 7.09375 -5.25 C 6.769531 -5.019531 6.429688 -4.847656 6.078125 -4.734375 L 8.984375 0 L 7.421875 0 L 4.875 -4.359375 L 2.765625 -4.359375 L 2.765625 0 L 1.4375 0 L 1.4375 -10.5625 Z M 4.28125 -9.40625 L 2.765625 -9.40625 L 2.765625 -5.484375 L 4.34375 -5.484375 C 5.207031 -5.484375 5.835938 -5.65625 6.234375 -6 C 6.628906 -6.34375 6.828125 -6.84375 6.828125 -7.5 C 6.828125 -8.1875 6.617188 -8.675781 6.203125 -8.96875 C 5.785156 -9.257812 5.144531 -9.40625 4.28125 -9.40625 Z M 4.28125 -9.40625 "/></g></g></g><g fill="#112642" fill-opacity="1"><g transform="translate(47.753904, 31.085526)"><g><path d="M 5.96875 -9.546875 C 4.832031 -9.546875 3.9375 -9.164062 3.28125 -8.40625 C 2.632812 -7.644531 2.3125 -6.601562 2.3125 -5.28125 C 2.3125 -3.96875 2.613281 -2.925781 3.21875 -2.15625 C 3.820312 -1.394531 4.734375 -1.015625 5.953125 -1.015625 C 6.398438 -1.015625 6.832031 -1.050781 7.25 -1.125 C 7.664062 -1.207031 8.078125 -1.3125 8.484375 -1.4375 L 8.484375 -0.28125 C 8.085938 -0.132812 7.675781 -0.03125 7.25 0.03125 C 6.832031 0.101562 6.332031 0.140625 5.75 0.140625 C 4.675781 0.140625 3.78125 -0.078125 3.0625 -0.515625 C 2.34375 -0.960938 1.800781 -1.59375 1.4375 -2.40625 C 1.082031 -3.226562 0.90625 -4.191406 0.90625 -5.296875 C 0.90625 -6.359375 1.097656 -7.296875 1.484375 -8.109375 C 1.878906 -8.929688 2.453125 -9.570312 3.203125 -10.03125 C 3.960938 -10.488281 4.890625 -10.71875 5.984375 -10.71875 C 7.097656 -10.71875 8.066406 -10.507812 8.890625 -10.09375 L 8.359375 -8.96875 C 8.035156 -9.113281 7.671875 -9.242188 7.265625 -9.359375 C 6.867188 -9.484375 6.4375 -9.546875 5.96875 -9.546875 Z M 5.96875 -9.546875 "/></g></g></g><g fill="#112642" fill-opacity="1"><g transform="translate(57.109155, 31.085526)"><g><path d="M 7.34375 0 L 1.4375 0 L 1.4375 -10.5625 L 7.34375 -10.5625 L 7.34375 -9.390625 L 2.765625 -9.390625 L 2.765625 -6.09375 L 7.078125 -6.09375 L 7.078125 -4.9375 L 2.765625 -4.9375 L 2.765625 -1.171875 L 7.34375 -1.171875 Z M 7.34375 0 "/></g></g></g><g fill="#112642" fill-opacity="1"><g transform="translate(65.339414, 31.085526)"><g><path d="M 9.8125 0 L 8.25 0 L 2.609375 -8.78125 L 2.546875 -8.78125 C 2.566406 -8.425781 2.585938 -7.992188 2.609375 -7.484375 C 2.640625 -6.972656 2.65625 -6.445312 2.65625 -5.90625 L 2.65625 0 L 1.4375 0 L 1.4375 -10.5625 L 2.96875 -10.5625 L 8.609375 -1.8125 L 8.671875 -1.8125 C 8.660156 -1.976562 8.644531 -2.21875 8.625 -2.53125 C 8.613281 -2.84375 8.597656 -3.179688 8.578125 -3.546875 C 8.566406 -3.921875 8.5625 -4.273438 8.5625 -4.609375 L 8.5625 -10.5625 L 9.8125 -10.5625 Z M 9.8125 0 "/></g></g></g><g fill="#112642" fill-opacity="1"><g transform="translate(76.5894, 31.085526)"><g><path d="M 4.78125 0 L 3.453125 0 L 3.453125 -9.390625 L 0.140625 -9.390625 L 0.140625 -10.5625 L 8.0625 -10.5625 L 8.0625 -9.390625 L 4.78125 -9.390625 Z M 4.78125 0 "/></g></g></g><g fill="#112642" fill-opacity="1"><g transform="translate(84.81966, 31.085526)"><g><path d="M 7.34375 0 L 1.4375 0 L 1.4375 -10.5625 L 7.34375 -10.5625 L 7.34375 -9.390625 L 2.765625 -9.390625 L 2.765625 -6.09375 L 7.078125 -6.09375 L 7.078125 -4.9375 L 2.765625 -4.9375 L 2.765625 -1.171875 L 7.34375 -1.171875 Z M 7.34375 0 "/></g></g></g><g fill="#112642" fill-opacity="1"><g transform="translate(93.049919, 31.085526)"><g><path d="M 4.34375 -10.5625 C 5.65625 -10.5625 6.625 -10.3125 7.25 -9.8125 C 7.882812 -9.320312 8.203125 -8.570312 8.203125 -7.5625 C 8.203125 -7 8.097656 -6.53125 7.890625 -6.15625 C 7.679688 -5.78125 7.414062 -5.476562 7.09375 -5.25 C 6.769531 -5.019531 6.429688 -4.847656 6.078125 -4.734375 L 8.984375 0 L 7.421875 0 L 4.875 -4.359375 L 2.765625 -4.359375 L 2.765625 0 L 1.4375 0 L 1.4375 -10.5625 Z M 4.28125 -9.40625 L 2.765625 -9.40625 L 2.765625 -5.484375 L 4.34375 -5.484375 C 5.207031 -5.484375 5.835938 -5.65625 6.234375 -6 C 6.628906 -6.34375 6.828125 -6.84375 6.828125 -7.5 C 6.828125 -8.1875 6.617188 -8.675781 6.203125 -8.96875 C 5.785156 -9.257812 5.144531 -9.40625 4.28125 -9.40625 Z M 4.28125 -9.40625 "/></g></g></g><path fill="#112642" d="M 26.699219 13.417969 C 26.699219 13.382812 26.636719 13.351562 26.5625 13.351562 C 26.492188 13.351562 26.378906 13.3125 26.316406 13.261719 C 26.253906 13.210938 26.167969 13.210938 26.128906 13.261719 C 26.085938 13.3125 26.105469 13.351562 26.164062 13.351562 C 26.226562 13.351562 26.308594 13.382812 26.351562 13.417969 C 26.394531 13.453125 26.492188 13.480469 26.5625 13.480469 C 26.636719 13.480469 26.699219 13.453125 26.699219 13.417969 " fill-opacity="1" fill-rule="nonzero"/><path fill="#112642" d="M 27.167969 13.546875 C 27.121094 13.511719 27.074219 13.457031 27.066406 13.425781 C 27.066406 13.425781 27.066406 13.425781 26.972656 13.480469 C 26.882812 13.535156 26.882812 13.535156 26.882812 13.535156 C 26.78125 13.578125 26.613281 13.6875 26.511719 13.777344 C 26.511719 13.777344 26.511719 13.777344 26.699219 13.777344 C 26.808594 13.777344 26.808594 13.777344 26.808594 13.777344 C 26.960938 13.777344 27.121094 13.777344 27.167969 13.777344 C 27.210938 13.777344 27.25 13.738281 27.25 13.691406 C 27.25 13.648438 27.210938 13.582031 27.167969 13.546875 " fill-opacity="1" fill-rule="nonzero"/><path fill="#112642" d="M 29.425781 7.066406 C 29.46875 7.070312 29.496094 7.074219 29.453125 7.066406 C 29.445312 7.0625 29.433594 7.0625 29.425781 7.066406 " fill-opacity="1" fill-rule="nonzero"/><path fill="#112642" d="M 31.257812 10.570312 C 31.257812 10.578125 31.257812 10.578125 31.257812 10.578125 C 31.199219 10.660156 31.152344 10.773438 31.152344 10.824219 C 31.152344 10.875 31.160156 10.945312 31.171875 10.976562 C 31.183594 11.007812 31.246094 10.992188 31.308594 10.933594 C 31.371094 10.878906 31.441406 10.820312 31.46875 10.804688 C 31.492188 10.789062 31.515625 10.730469 31.515625 10.667969 C 31.515625 10.667969 31.515625 10.667969 31.515625 10.632812 C 31.515625 10.59375 31.449219 10.503906 31.433594 10.464844 C 31.414062 10.429688 31.359375 10.355469 31.355469 10.300781 C 31.347656 10.246094 31.347656 10.246094 31.347656 10.246094 C 31.3125 10.171875 31.246094 10.109375 31.203125 10.109375 C 31.203125 10.109375 31.203125 10.109375 31.191406 10.109375 C 31.183594 10.109375 31.175781 10.207031 31.15625 10.234375 C 31.136719 10.265625 31.136719 10.265625 31.136719 10.265625 C 31.167969 10.355469 31.222656 10.492188 31.257812 10.566406 C 31.257812 10.566406 31.257812 10.566406 31.257812 10.570312 " fill-opacity="1" fill-rule="nonzero"/><path fill="#112642" d="M 30.890625 10.789062 C 30.9375 10.777344 30.9375 10.777344 30.9375 10.777344 C 30.980469 10.753906 31.035156 10.671875 31.054688 10.601562 C 31.074219 10.527344 31.085938 10.425781 31.082031 10.375 C 31.082031 10.375 31.082031 10.375 31.015625 10.410156 C 30.953125 10.449219 30.890625 10.464844 30.890625 10.519531 C 30.890625 10.578125 30.84375 10.796875 30.890625 10.789062 " fill-opacity="1" fill-rule="nonzero"/><path fill="#112642" d="M 34.601562 15.660156 C 34.464844 15.835938 34.335938 16.003906 34.3125 16.023438 C 34.289062 16.046875 34.214844 16.152344 34.152344 16.257812 C 34.152344 16.257812 34.152344 16.257812 34.132812 16.292969 C 34.117188 16.332031 34.117188 16.332031 34.117188 16.332031 C 34.164062 16.402344 34.222656 16.460938 34.238281 16.460938 C 34.253906 16.460938 34.289062 16.464844 34.316406 16.46875 C 34.316406 16.46875 34.316406 16.46875 34.335938 16.460938 C 34.355469 16.449219 34.371094 16.441406 34.390625 16.394531 C 34.410156 16.351562 34.429688 16.339844 34.4375 16.265625 C 34.445312 16.195312 34.574219 15.980469 34.585938 15.945312 C 34.59375 15.90625 34.59375 15.90625 34.59375 15.90625 C 34.640625 15.757812 34.710938 15.539062 34.75 15.421875 C 34.75 15.421875 34.75 15.421875 34.675781 15.539062 C 34.601562 15.660156 34.601562 15.660156 34.601562 15.660156 " fill-opacity="1" fill-rule="nonzero"/><g clip-path="url(#id1)"><path fill="#112642" d="M 30.269531 18.953125 C 29.769531 18.953125 29.285156 18.894531 28.820312 18.777344 C 28.820312 18.773438 28.816406 18.765625 28.8125 18.757812 C 28.761719 18.65625 28.738281 18.523438 28.757812 18.464844 C 28.757812 18.464844 28.757812 18.464844 28.703125 18.410156 C 28.648438 18.351562 28.632812 18.332031 28.617188 18.308594 C 28.605469 18.28125 28.589844 18.234375 28.589844 18.195312 C 28.589844 18.160156 28.625 18.089844 28.664062 18.042969 C 28.664062 18.042969 28.664062 18.042969 28.589844 18.003906 C 28.519531 17.96875 28.519531 18.078125 28.519531 17.96875 C 28.519531 17.855469 28.558594 17.824219 28.609375 17.785156 C 28.609375 17.785156 28.609375 17.785156 28.648438 17.730469 C 28.683594 17.671875 28.628906 17.800781 28.683594 17.671875 C 28.738281 17.542969 28.738281 17.542969 28.738281 17.542969 C 28.757812 17.453125 28.804688 17.355469 28.839844 17.324219 C 28.875 17.292969 28.902344 17.242188 28.902344 17.214844 C 28.902344 17.183594 28.902344 17.128906 28.902344 17.09375 C 28.902344 17.058594 28.894531 17.003906 28.882812 16.972656 C 28.882812 16.972656 28.882812 16.972656 28.902344 16.902344 C 28.921875 16.828125 28.921875 16.828125 28.921875 16.828125 C 28.910156 16.765625 28.929688 16.699219 28.960938 16.679688 C 28.960938 16.679688 28.960938 16.679688 29.011719 16.644531 C 29.070312 16.605469 29.070312 16.605469 29.070312 16.605469 C 29.148438 16.535156 29.175781 16.453125 29.125 16.425781 C 29.125 16.425781 29.125 16.425781 29.214844 16.367188 C 29.308594 16.3125 29.363281 16.257812 29.34375 16.183594 C 29.324219 16.109375 29.363281 16.296875 29.324219 16.109375 C 29.289062 15.925781 29.269531 15.945312 29.269531 15.816406 C 29.269531 15.6875 29.199219 15.796875 29.269531 15.6875 C 29.34375 15.578125 29.34375 15.578125 29.34375 15.578125 C 29.40625 15.460938 29.398438 15.304688 29.324219 15.226562 C 29.324219 15.226562 29.324219 15.226562 29.269531 15.210938 C 29.214844 15.191406 29.160156 15.15625 29.070312 15.117188 C 28.976562 15.082031 28.976562 15.082031 28.976562 15.082031 C 28.835938 15.03125 28.664062 14.964844 28.589844 14.933594 C 28.589844 14.933594 28.589844 14.933594 28.535156 14.914062 C 28.480469 14.894531 28.480469 14.894531 28.480469 14.894531 C 28.378906 14.753906 28.289062 14.640625 28.277344 14.640625 C 28.277344 14.640625 28.277344 14.640625 28.113281 14.585938 C 27.949219 14.53125 27.910156 14.511719 27.855469 14.457031 C 27.800781 14.402344 27.800781 14.402344 27.800781 14.402344 C 27.71875 14.328125 27.644531 14.25 27.632812 14.226562 C 27.625 14.199219 27.59375 14.203125 27.5625 14.234375 C 27.5625 14.234375 27.5625 14.234375 27.394531 14.214844 C 27.230469 14.199219 27.230469 14.199219 27.230469 14.199219 C 27.148438 14.128906 27.042969 14.070312 26.992188 14.070312 C 26.992188 14.070312 26.992188 14.070312 26.917969 14.105469 C 26.84375 14.144531 26.84375 14.144531 26.84375 14.144531 C 26.773438 14.195312 26.6875 14.242188 26.652344 14.253906 C 26.617188 14.261719 26.535156 14.269531 26.46875 14.261719 C 26.402344 14.257812 26.3125 14.234375 26.265625 14.207031 C 26.21875 14.183594 26.160156 14.117188 26.136719 14.0625 C 26.109375 14.003906 26.082031 13.917969 26.070312 13.867188 C 26.070312 13.867188 26.070312 13.867188 26.019531 13.832031 C 25.960938 13.792969 25.960938 13.792969 25.960938 13.792969 C 25.882812 13.734375 25.832031 13.632812 25.851562 13.574219 C 25.871094 13.511719 25.855469 13.421875 25.816406 13.371094 C 25.816406 13.371094 25.816406 13.371094 25.742188 13.410156 C 25.667969 13.445312 25.667969 13.445312 25.667969 13.445312 C 25.605469 13.515625 25.53125 13.589844 25.503906 13.609375 C 25.503906 13.609375 25.503906 13.609375 25.449219 13.589844 C 25.390625 13.574219 25.300781 13.535156 25.207031 13.445312 C 25.117188 13.351562 25.097656 13.261719 25.097656 13.207031 C 25.097656 13.152344 25.097656 13.152344 25.097656 13.152344 C 25.160156 13.019531 25.277344 12.863281 25.363281 12.800781 C 25.453125 12.738281 25.5625 12.691406 25.613281 12.691406 C 25.664062 12.691406 25.75 12.671875 25.804688 12.644531 C 25.863281 12.621094 25.953125 12.65625 26.007812 12.726562 C 26.0625 12.796875 26.148438 12.902344 26.191406 12.957031 C 26.238281 13.011719 26.367188 13 26.476562 12.929688 C 26.476562 12.929688 26.476562 12.929688 26.429688 12.875 C 26.386719 12.820312 26.386719 12.820312 26.386719 12.820312 C 26.34375 12.757812 26.351562 12.644531 26.402344 12.5625 C 26.402344 12.5625 26.402344 12.5625 26.429688 12.507812 C 26.457031 12.453125 26.496094 12.433594 26.570312 12.324219 C 26.640625 12.210938 26.679688 12.15625 26.714844 12.101562 C 26.753906 12.046875 26.753906 12.046875 26.753906 12.046875 C 26.832031 11.90625 26.933594 11.765625 26.972656 11.734375 C 27.011719 11.707031 27.078125 11.640625 27.109375 11.597656 C 27.144531 11.550781 27.195312 11.492188 27.222656 11.46875 C 27.246094 11.445312 27.300781 11.421875 27.339844 11.421875 C 27.382812 11.421875 27.472656 11.394531 27.542969 11.355469 C 27.613281 11.324219 27.710938 11.292969 27.753906 11.292969 C 27.800781 11.292969 27.804688 11.253906 27.761719 11.203125 C 27.722656 11.152344 27.671875 11.085938 27.644531 11.054688 C 27.621094 11.023438 27.675781 10.964844 27.773438 10.925781 C 27.867188 10.886719 28.0625 10.785156 28.203125 10.707031 C 28.203125 10.707031 28.203125 10.707031 28.1875 10.761719 C 28.167969 10.816406 28.167969 10.816406 28.167969 10.816406 C 28.058594 10.957031 28 11.097656 28.039062 11.128906 C 28.082031 11.160156 28.1875 11.199219 28.277344 11.21875 C 28.277344 11.21875 28.277344 11.21875 28.316406 11.164062 C 28.351562 11.109375 28.351562 11.109375 28.351562 11.109375 C 28.363281 11.039062 28.359375 10.929688 28.34375 10.867188 C 28.328125 10.800781 28.316406 10.671875 28.316406 10.578125 C 28.316406 10.578125 28.316406 10.578125 28.316406 10.484375 C 28.316406 10.394531 28.277344 10.15625 28.222656 10.191406 C 28.167969 10.226562 28.167969 10.226562 28.167969 10.226562 C 28.136719 10.117188 28.113281 9.96875 28.113281 9.898438 C 28.113281 9.824219 28.066406 9.808594 28.011719 9.859375 C 27.957031 9.910156 27.84375 9.945312 27.761719 9.933594 C 27.761719 9.933594 27.761719 9.933594 27.78125 9.878906 C 27.800781 9.824219 27.800781 9.824219 27.800781 9.824219 C 27.851562 9.792969 27.847656 9.730469 27.789062 9.683594 C 27.734375 9.640625 27.589844 9.535156 27.46875 9.457031 C 27.46875 9.457031 27.46875 9.457031 27.433594 9.511719 C 27.394531 9.566406 27.394531 9.566406 27.394531 9.566406 C 27.367188 9.648438 27.320312 9.757812 27.296875 9.8125 C 27.269531 9.871094 27.25 9.945312 27.25 9.980469 C 27.25 10.015625 27.230469 10.085938 27.210938 10.136719 C 27.191406 10.1875 27.125 10.277344 27.0625 10.335938 C 27.003906 10.398438 26.929688 10.496094 26.898438 10.558594 C 26.871094 10.621094 26.828125 10.542969 26.808594 10.394531 C 26.808594 10.394531 26.808594 10.394531 26.808594 10.335938 C 26.808594 10.285156 26.808594 10.285156 26.808594 10.285156 C 26.675781 10.160156 26.554688 10.011719 26.539062 9.953125 C 26.527344 9.890625 26.546875 9.777344 26.585938 9.695312 C 26.585938 9.695312 26.585938 9.695312 26.585938 9.640625 C 26.585938 9.585938 26.679688 9.472656 26.753906 9.402344 C 26.828125 9.328125 27.011719 9.179688 27.0625 9.144531 C 27.121094 9.105469 27.121094 9.105469 27.121094 9.105469 C 27.191406 9.066406 27.242188 9.101562 27.230469 9.1875 C 27.21875 9.277344 27.265625 9.335938 27.332031 9.328125 C 27.398438 9.316406 27.441406 9.273438 27.433594 9.226562 C 27.421875 9.179688 27.460938 9.117188 27.515625 9.085938 C 27.570312 9.058594 27.640625 8.96875 27.671875 8.886719 C 27.703125 8.804688 27.777344 8.621094 27.835938 8.480469 C 27.835938 8.480469 27.835938 8.480469 27.890625 8.519531 C 27.949219 8.554688 27.949219 8.554688 27.949219 8.554688 C 28.019531 8.644531 28.03125 8.8125 27.976562 8.921875 C 27.917969 9.035156 27.835938 9.125 27.789062 9.125 C 27.746094 9.125 27.695312 9.164062 27.679688 9.207031 C 27.664062 9.253906 27.695312 9.296875 27.746094 9.308594 C 27.746094 9.308594 27.746094 9.308594 27.820312 9.363281 C 27.890625 9.417969 27.890625 9.417969 27.890625 9.417969 C 27.964844 9.5 28.070312 9.527344 28.132812 9.484375 C 28.191406 9.4375 28.242188 9.367188 28.242188 9.328125 C 28.242188 9.285156 28.277344 9.253906 28.324219 9.253906 C 28.371094 9.253906 28.433594 9.199219 28.460938 9.132812 C 28.492188 9.066406 28.507812 8.976562 28.5 8.929688 C 28.488281 8.886719 28.480469 8.824219 28.480469 8.792969 C 28.480469 8.792969 28.480469 8.792969 28.5 8.71875 C 28.515625 8.648438 28.5 8.617188 28.480469 8.582031 C 28.460938 8.542969 28.445312 8.472656 28.445312 8.425781 C 28.445312 8.375 28.445312 8.300781 28.445312 8.261719 C 28.445312 8.21875 28.417969 8.140625 28.390625 8.085938 C 28.359375 8.03125 28.253906 7.984375 28.160156 7.984375 C 28.0625 7.984375 27.855469 7.921875 27.699219 7.847656 C 27.542969 7.769531 27.382812 7.707031 27.339844 7.707031 C 27.308594 7.707031 27.238281 7.6875 27.171875 7.660156 C 27.539062 7.441406 27.929688 7.261719 28.335938 7.125 C 28.347656 7.238281 28.378906 7.367188 28.421875 7.433594 C 28.46875 7.511719 28.554688 7.589844 28.609375 7.597656 C 28.609375 7.597656 28.609375 7.597656 28.683594 7.582031 C 28.757812 7.5625 28.902344 7.378906 28.941406 7.324219 C 28.976562 7.269531 29.234375 7.121094 29.308594 7.085938 C 29.339844 7.066406 29.339844 7.066406 29.339844 7.066406 C 29.386719 7.066406 29.433594 7.066406 29.445312 7.0625 C 29.445312 7.0625 29.445312 7.0625 29.453125 7.066406 C 29.496094 7.074219 29.496094 7.074219 29.496094 7.074219 C 29.457031 7.070312 29.394531 7.125 29.359375 7.191406 C 29.359375 7.191406 29.359375 7.191406 29.234375 7.285156 C 29.085938 7.394531 29.085938 7.394531 29.085938 7.394531 C 29.046875 7.5 29.046875 7.652344 29.085938 7.726562 C 29.085938 7.726562 29.085938 7.726562 29.140625 7.820312 C 29.199219 7.910156 29.199219 7.910156 29.199219 7.910156 C 29.207031 7.960938 29.214844 8.019531 29.214844 8.039062 C 29.214844 8.039062 29.214844 8.039062 29.214844 8.09375 C 29.214844 8.152344 29.199219 8.316406 29.199219 8.371094 C 29.199219 8.425781 29.085938 8.71875 29.085938 8.777344 C 29.085938 8.828125 29.054688 8.980469 29.015625 9.164062 C 29.015625 9.164062 29.015625 9.164062 28.902344 9.234375 C 28.792969 9.308594 28.886719 9.363281 28.902344 9.457031 C 28.921875 9.546875 28.777344 9.527344 28.902344 9.640625 C 29.03125 9.75 28.976562 9.640625 29.03125 9.75 C 29.085938 9.859375 29.050781 9.785156 29.160156 9.75 C 29.265625 9.714844 29.265625 9.714844 29.265625 9.714844 C 29.429688 9.511719 29.5625 9.34375 29.558594 9.347656 C 29.5625 9.34375 29.566406 9.34375 29.566406 9.339844 C 29.570312 9.339844 29.570312 9.339844 29.570312 9.339844 C 29.566406 9.339844 29.5625 9.34375 29.558594 9.347656 C 29.5625 9.34375 29.578125 9.332031 29.582031 9.332031 C 29.582031 9.332031 29.582031 9.332031 29.582031 9.328125 C 29.613281 9.304688 29.613281 9.304688 29.613281 9.304688 C 29.605469 9.3125 29.597656 9.316406 29.589844 9.324219 C 29.601562 9.316406 29.605469 9.3125 29.582031 9.328125 C 29.582031 9.332031 29.574219 9.332031 29.570312 9.339844 C 29.574219 9.335938 29.574219 9.335938 29.578125 9.332031 C 29.574219 9.335938 29.570312 9.335938 29.570312 9.339844 C 29.574219 9.335938 29.589844 9.324219 29.613281 9.304688 C 29.613281 9.304688 29.613281 9.304688 29.65625 9.273438 C 29.898438 9.085938 29.75 9.179688 29.898438 9.085938 C 30.042969 8.996094 29.859375 9.050781 30.042969 8.996094 C 30.226562 8.941406 30.226562 8.941406 30.226562 8.941406 C 30.347656 8.878906 30.511719 8.730469 30.59375 8.609375 C 30.59375 8.609375 30.59375 8.609375 30.613281 8.554688 C 30.632812 8.5 30.667969 8.5 30.613281 8.425781 C 30.558594 8.351562 30.484375 8.535156 30.558594 8.351562 C 30.632812 8.167969 30.597656 8.167969 30.640625 8.09375 C 30.6875 8.023438 30.5625 8.132812 30.640625 7.929688 C 30.722656 7.726562 30.722656 7.726562 30.722656 7.726562 C 30.753906 7.675781 30.730469 7.601562 30.667969 7.5625 C 30.667969 7.5625 30.667969 7.5625 30.777344 7.488281 C 30.890625 7.414062 30.917969 7.375 30.953125 7.324219 C 30.988281 7.273438 30.976562 7.191406 30.925781 7.140625 C 30.925781 7.140625 30.925781 7.140625 31.019531 7.085938 C 31.109375 7.03125 31.089844 7.125 31.148438 6.976562 C 31.191406 6.855469 31.164062 6.914062 31.179688 6.878906 C 32.058594 7.007812 32.878906 7.332031 33.59375 7.800781 C 33.492188 7.875 33.628906 8.023438 33.59375 8.09375 C 33.5625 8.167969 33.5625 8.167969 33.5625 8.167969 C 33.582031 8.230469 33.710938 8.371094 33.851562 8.480469 C 33.851562 8.480469 33.851562 8.480469 33.933594 8.519531 C 33.972656 8.535156 33.972656 8.535156 33.972656 8.535156 C 34.03125 8.609375 34.078125 8.671875 34.074219 8.675781 C 34.070312 8.679688 34.0625 8.691406 34.054688 8.703125 C 34.054688 8.703125 34.054688 8.703125 33.933594 8.757812 C 33.8125 8.8125 33.8125 8.8125 33.8125 8.8125 C 33.691406 8.871094 33.496094 8.957031 33.371094 8.996094 C 33.371094 8.996094 33.371094 8.996094 33.351562 8.921875 C 33.335938 8.847656 33.335938 8.847656 33.335938 8.847656 C 33.246094 8.828125 33.136719 8.777344 33.09375 8.738281 C 33.09375 8.738281 33.09375 8.738281 33.003906 8.703125 C 32.910156 8.664062 32.910156 8.664062 32.910156 8.664062 C 32.851562 8.613281 32.726562 8.546875 32.636719 8.519531 C 32.636719 8.519531 32.636719 8.519531 32.5625 8.589844 C 32.488281 8.664062 32.269531 8.71875 32.230469 8.847656 C 32.195312 8.976562 32.140625 9.105469 32.121094 9.179688 C 32.101562 9.253906 31.882812 9.527344 31.808594 9.601562 C 31.734375 9.675781 31.644531 9.824219 31.699219 9.898438 C 31.753906 9.96875 31.902344 10.15625 31.957031 10.117188 C 32.011719 10.082031 32.070312 10.121094 32.140625 10.171875 C 32.210938 10.222656 32.363281 10.058594 32.480469 9.8125 C 32.480469 9.8125 32.480469 9.8125 32.464844 9.808594 C 32.453125 9.804688 32.382812 9.546875 32.472656 9.492188 C 32.5625 9.4375 32.617188 9.164062 32.671875 9.214844 C 32.726562 9.273438 32.726562 9.273438 32.726562 9.273438 C 32.65625 9.492188 32.667969 9.707031 32.753906 9.742188 C 32.839844 9.777344 33.011719 9.757812 33.132812 9.699219 C 33.132812 9.699219 33.132812 9.699219 33.039062 9.808594 C 32.949219 9.914062 32.78125 10.027344 32.765625 10.078125 C 32.746094 10.136719 32.746094 10.136719 32.746094 10.136719 C 32.589844 10.308594 32.414062 10.449219 32.347656 10.449219 C 32.285156 10.449219 32.140625 10.414062 32.03125 10.375 C 32.03125 10.375 32.03125 10.375 31.902344 10.449219 C 31.773438 10.519531 31.773438 10.519531 31.773438 10.519531 C 31.628906 10.664062 31.515625 10.835938 31.515625 10.90625 C 31.515625 10.980469 31.433594 10.988281 31.332031 10.925781 C 31.332031 10.925781 31.332031 10.925781 31.292969 11.035156 C 31.257812 11.148438 31.257812 11.148438 31.257812 11.148438 C 31.277344 11.222656 31.308594 11.320312 31.332031 11.363281 C 31.351562 11.40625 31.351562 11.472656 31.332031 11.511719 C 31.332031 11.511719 31.332031 11.511719 31.195312 11.53125 C 31.054688 11.550781 31.019531 11.421875 30.980469 11.53125 C 30.945312 11.644531 30.945312 11.644531 30.945312 11.644531 C 30.964844 11.734375 30.976562 11.855469 30.972656 11.914062 C 30.96875 11.972656 31.003906 11.890625 31.054688 11.734375 C 31.054688 11.734375 31.054688 11.734375 31.035156 12.019531 C 31.019531 12.304688 31.167969 12.066406 31.019531 12.304688 C 30.871094 12.542969 31.019531 12.359375 30.871094 12.542969 C 30.722656 12.726562 30.722656 12.800781 30.613281 12.957031 C 30.503906 13.113281 30.46875 13.28125 30.402344 13.324219 C 30.339844 13.371094 30.414062 13.410156 30.402344 13.480469 C 30.394531 13.554688 30.394531 13.554688 30.394531 13.554688 C 30.398438 13.675781 30.464844 13.898438 30.539062 14.050781 C 30.539062 14.050781 30.539062 14.050781 30.578125 14.105469 C 30.613281 14.160156 30.632812 14.21875 30.707031 14.308594 C 30.78125 14.402344 30.855469 14.375 30.945312 14.347656 C 30.945312 14.347656 30.945312 14.347656 31 14.402344 C 31.054688 14.457031 31.144531 14.457031 31.257812 14.457031 C 31.257812 14.457031 31.257812 14.457031 31.3125 14.457031 C 31.367188 14.457031 31.40625 14.492188 31.460938 14.457031 C 31.515625 14.417969 31.515625 14.417969 31.515625 14.417969 C 31.59375 14.390625 31.710938 14.386719 31.773438 14.417969 C 31.832031 14.449219 31.925781 14.488281 31.972656 14.511719 C 32.023438 14.53125 32.050781 14.695312 32.03125 14.878906 C 32.03125 14.878906 32.03125 14.878906 32.085938 14.953125 C 32.140625 15.027344 32.269531 15.210938 32.324219 15.210938 C 32.378906 15.210938 32.378906 15.210938 32.378906 15.210938 C 32.425781 15.25 32.464844 15.363281 32.464844 15.457031 C 32.464844 15.554688 32.445312 15.679688 32.421875 15.734375 C 32.398438 15.789062 32.375 15.859375 32.367188 15.890625 C 32.363281 15.921875 32.34375 16.027344 32.324219 16.128906 C 32.324219 16.128906 32.324219 16.128906 32.359375 16.238281 C 32.398438 16.351562 32.417969 16.605469 32.480469 16.660156 C 32.542969 16.714844 32.542969 16.714844 32.542969 16.714844 C 32.5625 16.816406 32.613281 16.972656 32.652344 17.058594 C 32.695312 17.144531 32.875 17.164062 33.058594 17.101562 C 33.058594 17.101562 33.058594 17.101562 33.167969 17.066406 C 33.28125 17.03125 33.371094 16.9375 33.445312 16.753906 C 33.515625 16.570312 33.527344 16.367188 33.59375 16.3125 C 33.664062 16.257812 33.757812 16.164062 33.832031 16.074219 C 33.902344 15.980469 34.070312 15.761719 34.085938 15.6875 C 34.105469 15.613281 34.105469 15.613281 34.105469 15.613281 C 34.078125 15.359375 34.035156 15.097656 34.015625 15.027344 C 34.015625 15.027344 34.015625 15.027344 34.085938 14.953125 C 34.160156 14.878906 34.402344 14.621094 34.4375 14.546875 C 34.472656 14.476562 34.714844 14.179688 34.730469 14.125 C 34.75 14.070312 34.785156 13.8125 34.730469 13.847656 C 34.675781 13.886719 34.675781 13.886719 34.675781 13.886719 C 34.554688 13.945312 34.382812 13.886719 34.289062 13.757812 C 34.289062 13.757812 34.289062 13.757812 34.363281 13.777344 C 34.4375 13.792969 34.730469 13.734375 34.898438 13.617188 C 35.0625 13.5 35.0625 13.5 35.0625 13.5 C 35.183594 13.359375 35.285156 13.179688 35.285156 13.097656 C 35.285156 13.023438 35.242188 12.929688 35.191406 12.894531 C 35.191406 12.894531 35.191406 12.894531 35.136719 12.875 C 35.082031 12.855469 35.082031 12.855469 35.082031 12.855469 C 34.988281 12.847656 34.882812 12.808594 34.84375 12.773438 C 34.800781 12.738281 34.601562 12.601562 34.402344 12.46875 C 34.402344 12.46875 34.402344 12.46875 34.53125 12.488281 C 34.65625 12.507812 34.65625 12.507812 34.65625 12.507812 C 34.929688 12.617188 35.296875 12.71875 35.464844 12.726562 C 35.464844 12.726562 35.464844 12.726562 35.523438 12.710938 C 35.578125 12.691406 35.890625 12.914062 35.945312 12.957031 C 36 13.003906 36.148438 13.222656 36.222656 13.324219 C 36.292969 13.425781 36.292969 13.425781 36.292969 13.425781 C 36.300781 13.433594 36.308594 13.445312 36.316406 13.453125 C 36.023438 16.535156 33.425781 18.953125 30.269531 18.953125 Z M 24.207031 13.226562 C 24.324219 13.277344 24.316406 13.261719 24.308594 13.242188 C 24.308594 13.242188 24.308594 13.242188 24.328125 13.167969 C 24.34375 13.097656 24.417969 13.222656 24.34375 13.097656 C 24.269531 12.96875 24.308594 13.113281 24.269531 12.96875 C 24.234375 12.820312 24.21875 12.777344 24.199219 12.726562 C 24.199219 12.726562 24.203125 12.726562 24.253906 12.726562 C 24.308594 12.726562 24.308594 12.726562 24.308594 12.726562 C 24.34375 12.839844 24.417969 13.027344 24.472656 13.152344 C 24.472656 13.152344 24.472656 13.152344 24.527344 13.1875 C 24.582031 13.222656 24.617188 13.257812 24.65625 13.296875 C 24.65625 13.296875 24.65625 13.296875 24.675781 13.371094 C 24.691406 13.445312 24.582031 13.460938 24.675781 13.519531 C 24.765625 13.574219 24.636719 13.460938 24.765625 13.574219 C 24.898438 13.683594 24.96875 13.664062 25.023438 13.703125 C 25.078125 13.738281 25.097656 13.589844 25.152344 13.703125 C 25.207031 13.8125 25.042969 13.703125 25.207031 13.8125 C 25.375 13.921875 25.375 13.921875 25.375 13.921875 C 25.425781 13.953125 25.472656 13.929688 25.484375 13.867188 C 25.484375 13.867188 25.484375 13.867188 25.59375 13.976562 C 25.703125 14.089844 25.703125 14.089844 25.703125 14.089844 C 25.773438 14.097656 25.839844 14.132812 25.851562 14.160156 C 25.851562 14.160156 25.851562 14.160156 25.945312 14.234375 C 26.035156 14.308594 25.945312 14.199219 26.035156 14.308594 C 26.128906 14.417969 26.164062 14.445312 26.210938 14.472656 C 26.257812 14.503906 26.308594 14.53125 26.328125 14.53125 C 26.351562 14.53125 26.378906 14.550781 26.394531 14.574219 C 26.410156 14.601562 26.457031 14.664062 26.496094 14.710938 C 26.535156 14.765625 26.570312 14.835938 26.570312 14.871094 C 26.570312 14.90625 26.527344 14.875 26.476562 14.804688 C 26.476562 14.804688 26.476562 14.804688 26.476562 14.933594 C 26.476562 15.0625 26.496094 14.953125 26.476562 15.0625 C 26.457031 15.171875 26.484375 15.207031 26.511719 15.246094 C 26.542969 15.285156 26.570312 15.347656 26.570312 15.382812 C 26.570312 15.421875 26.570312 15.476562 26.570312 15.511719 C 26.570312 15.546875 26.617188 15.636719 26.679688 15.707031 C 26.679688 15.707031 26.679688 15.707031 26.734375 15.742188 C 26.789062 15.78125 26.640625 15.652344 26.789062 15.78125 C 26.9375 15.90625 26.980469 15.949219 27.039062 16 C 27.09375 16.050781 27.140625 16.109375 27.140625 16.128906 C 27.140625 16.148438 27.195312 16.125 27.269531 16.074219 C 27.269531 16.074219 27.269531 16.074219 27.324219 16.164062 C 27.378906 16.257812 27.378906 16.257812 27.378906 16.257812 C 27.417969 16.308594 27.453125 16.367188 27.453125 16.386719 C 27.453125 16.40625 27.484375 16.355469 27.523438 16.277344 C 27.523438 16.277344 27.523438 16.277344 27.5625 16.421875 C 27.597656 16.570312 27.597656 16.570312 27.597656 16.570312 C 27.578125 16.609375 27.609375 16.683594 27.671875 16.734375 C 27.671875 16.734375 27.671875 16.734375 27.691406 16.789062 C 27.707031 16.84375 27.652344 16.902344 27.691406 16.957031 C 27.726562 17.011719 27.726562 17.011719 27.726562 17.011719 C 27.757812 17.140625 27.816406 17.316406 27.855469 17.398438 C 27.894531 17.476562 27.914062 17.59375 27.890625 17.652344 C 27.890625 17.652344 27.890625 17.652344 27.929688 17.710938 C 27.964844 17.765625 27.964844 17.765625 27.964844 17.765625 C 27.996094 17.824219 27.964844 17.925781 27.890625 17.984375 C 27.890625 17.984375 27.890625 17.984375 28.019531 18.113281 C 28.148438 18.242188 28.074219 18.113281 28.148438 18.242188 C 28.222656 18.371094 28.222656 18.371094 28.222656 18.371094 C 28.253906 18.441406 28.332031 18.5625 28.398438 18.636719 C 28.40625 18.648438 28.414062 18.65625 28.421875 18.667969 C 26.082031 17.917969 24.351562 15.78125 24.207031 13.226562 Z M 33.683594 7.863281 C 33.894531 8.003906 34.09375 8.160156 34.277344 8.324219 C 34.1875 8.460938 34.09375 8.535156 34.046875 8.5 C 34 8.460938 33.886719 8.226562 33.792969 7.984375 C 33.792969 7.984375 33.792969 7.984375 33.738281 7.929688 C 33.683594 7.875 33.683594 7.875 33.683594 7.875 C 33.683594 7.871094 33.683594 7.867188 33.683594 7.863281 Z M 33.59375 12.710938 C 33.59375 12.710938 33.617188 12.710938 33.644531 12.710938 C 33.714844 12.710938 33.714844 12.710938 33.714844 12.710938 C 33.777344 12.710938 33.871094 12.765625 33.921875 12.839844 C 33.921875 12.839844 33.921875 12.839844 33.960938 12.957031 C 33.996094 13.078125 34.214844 13.28125 34.253906 13.457031 C 34.289062 13.632812 34.289062 13.632812 34.289062 13.632812 C 34.269531 13.710938 34.179688 13.683594 34.085938 13.574219 C 34.085938 13.574219 34.085938 13.574219 34.03125 13.480469 C 33.976562 13.390625 33.8125 13.222656 33.738281 13.167969 C 33.664062 13.113281 33.664062 13.113281 33.664062 13.113281 C 33.65625 12.890625 33.621094 12.710938 33.59375 12.710938 Z M 33.296875 11.347656 C 33.296875 11.347656 33.296875 11.347656 33.351562 11.285156 C 33.40625 11.21875 33.40625 11.21875 33.40625 11.21875 C 33.46875 11.253906 33.539062 11.226562 33.566406 11.160156 C 33.59375 11.09375 33.664062 11.117188 33.722656 11.21875 C 33.722656 11.21875 33.722656 11.21875 33.738281 11.277344 C 33.757812 11.332031 33.757812 11.332031 33.757812 11.332031 C 33.867188 11.382812 33.933594 11.445312 33.902344 11.476562 C 33.875 11.507812 33.78125 11.53125 33.703125 11.53125 C 33.621094 11.53125 33.527344 11.53125 33.492188 11.53125 C 33.453125 11.53125 33.253906 11.5 33.222656 11.46875 C 33.195312 11.433594 33.226562 11.378906 33.296875 11.347656 Z M 32.417969 11.988281 C 32.445312 11.945312 32.503906 11.910156 32.546875 11.910156 C 32.585938 11.910156 32.683594 11.933594 32.765625 11.960938 C 32.84375 11.988281 32.90625 11.960938 32.902344 11.898438 C 32.898438 11.839844 32.921875 11.789062 32.957031 11.789062 C 32.992188 11.789062 33.078125 11.839844 33.152344 11.902344 C 33.222656 11.964844 33.382812 12.019531 33.507812 12.019531 C 33.632812 12.019531 33.714844 12.097656 33.683594 12.195312 C 33.683594 12.195312 33.683594 12.195312 33.644531 12.261719 C 33.609375 12.332031 33.609375 12.332031 33.609375 12.332031 C 33.476562 12.367188 33.296875 12.398438 33.207031 12.398438 C 33.113281 12.398438 33.003906 12.390625 32.957031 12.386719 C 32.910156 12.382812 32.828125 12.40625 32.773438 12.441406 C 32.71875 12.476562 32.625 12.484375 32.574219 12.460938 C 32.519531 12.433594 32.363281 12.324219 32.230469 12.210938 C 32.230469 12.210938 32.230469 12.210938 32.214844 12.15625 C 32.195312 12.101562 31.917969 12.066406 31.863281 12.046875 C 31.808594 12.027344 31.808594 12.027344 31.808594 12.027344 C 31.636719 12.039062 31.453125 12.078125 31.402344 12.121094 C 31.402344 12.121094 31.402344 12.121094 31.238281 12.15625 C 31.074219 12.195312 31.402344 11.9375 31.496094 11.910156 C 31.589844 11.882812 31.625 11.714844 31.679688 11.585938 C 31.734375 11.460938 31.734375 11.460938 31.734375 11.460938 C 31.867188 11.527344 32.007812 11.585938 32.046875 11.585938 C 32.089844 11.585938 32.195312 11.636719 32.285156 11.699219 C 32.285156 11.699219 32.285156 11.699219 32.339844 11.789062 C 32.394531 11.882812 32.304688 11.84375 32.265625 11.910156 C 32.230469 11.976562 32.230469 11.976562 32.230469 11.976562 C 32.304688 12.027344 32.386719 12.03125 32.417969 11.988281 Z M 30.269531 6.21875 C 26.59375 6.21875 23.605469 9.207031 23.605469 12.878906 C 23.605469 16.554688 26.59375 19.542969 30.269531 19.542969 C 33.941406 19.542969 36.929688 16.554688 36.929688 12.878906 C 36.929688 9.207031 33.941406 6.21875 30.269531 6.21875 " fill-opacity="1" fill-rule="nonzero"/></g></svg>